<svg width="21" height="23" viewBox="0 0 21 23" fill="none" xmlns="http://www.w3.org/2000/svg">
<path d="M10.5 0.959961C4.70225 0.959961 0 5.84939 0 11.88C0 16.7048 3.00825 20.798 7.18112 22.2421C7.70525 22.3431 7.875 22.0046 7.875 21.7171V19.6841C4.95425 20.3448 4.34613 18.3956 4.34613 18.3956C3.86838 17.1334 3.17975 16.7976 3.17975 16.7976C2.22688 16.1197 3.25238 16.1342 3.25238 16.1342C4.30675 16.2107 4.8615 17.2599 4.8615 17.2599C5.79775 18.9288 7.31763 18.4465 7.917 18.1672C8.01062 17.4619 8.28275 16.9796 8.58375 16.7075C6.25188 16.43 3.80012 15.4936 3.80012 11.3103C3.80012 10.1173 4.2105 9.14359 4.88163 8.37919C4.77313 8.10346 4.4135 6.99235 4.984 5.48903C4.984 5.48903 5.866 5.19601 7.87237 6.60833C8.70975 6.36627 9.6075 6.24524 10.5 6.24069C11.3925 6.24524 12.2911 6.36627 13.1302 6.60833C15.1349 5.19601 16.0151 5.48903 16.0151 5.48903C16.5865 6.99326 16.2269 8.10437 16.1184 8.37919C16.7921 9.14359 17.199 10.1182 17.199 11.3103C17.199 15.5045 14.7429 16.4281 12.4049 16.6984C12.7811 17.0369 13.125 17.7012 13.125 18.7204V21.7171C13.125 22.0074 13.293 22.3486 13.8259 22.2412C17.9952 20.7952 21 16.703 21 11.88C21 5.84939 16.2986 0.959961 10.5 0.959961Z" fill="#FEFEFE"/>
</svg>
