<svg width="21" height="22" viewBox="0 0 21 22" fill="none" xmlns="http://www.w3.org/2000/svg">
<path d="M10.5 0C4.70225 0 0 4.88943 0 10.92C0 15.7448 3.00825 19.838 7.18112 21.2822C7.70525 21.3832 7.875 21.0447 7.875 20.7571V18.7242C4.95425 19.3848 4.34613 17.4356 4.34613 17.4356C3.86838 16.1734 3.17975 15.8376 3.17975 15.8376C2.22688 15.1597 3.25238 15.1743 3.25238 15.1743C4.30675 15.2507 4.8615 16.2999 4.8615 16.2999C5.79775 17.9689 7.31763 17.4866 7.917 17.2072C8.01063 16.5019 8.28275 16.0196 8.58375 15.7476C6.25188 15.47 3.80012 14.5336 3.80012 10.3503C3.80012 9.15733 4.2105 8.18363 4.88162 7.41923C4.77312 7.1435 4.4135 6.03239 4.984 4.52907C4.984 4.52907 5.866 4.23605 7.87237 5.64837C8.70975 5.40631 9.6075 5.28528 10.5 5.28073C11.3925 5.28528 12.2911 5.40631 13.1302 5.64837C15.1349 4.23605 16.0151 4.52907 16.0151 4.52907C16.5865 6.0333 16.2269 7.14441 16.1184 7.41923C16.7921 8.18363 17.199 9.15824 17.199 10.3503C17.199 14.5445 14.7429 15.4682 12.4049 15.7385C12.7811 16.077 13.125 16.7413 13.125 17.7605V20.7571C13.125 21.0474 13.293 21.3886 13.8259 21.2813C17.9952 19.8353 21 15.743 21 10.92C21 4.88943 16.2986 0 10.5 0Z" fill="#121212"/>
</svg>
