<svg width="21" height="22" viewBox="0 0 21 22" fill="none" xmlns="http://www.w3.org/2000/svg">
<path d="M2.5 0C1.12524 0 0 1.17025 0 2.6V19.24C0 20.6697 1.12524 21.84 2.5 21.84H18.5C19.8748 21.84 21 20.6697 21 19.24V2.6C21 1.17025 19.8748 0 18.5 0H2.5ZM2.5 1.04H18.5C19.3342 1.04 20 1.73239 20 2.6V19.24C20 20.1076 19.3342 20.8 18.5 20.8H2.5C1.66576 20.8 1 20.1076 1 19.24V2.6C1 1.73239 1.66576 1.04 2.5 1.04ZM5 3.64609C4.45239 3.64609 3.95961 3.81632 3.59473 4.13563C3.22984 4.45493 3.00586 4.93195 3.00586 5.44273C3.00586 6.41367 3.81564 7.1706 4.8457 7.24547L4.84766 7.24648C4.89674 7.26388 4.94815 7.27314 5 7.27391C6.13651 7.27391 6.99414 6.44596 6.99414 5.44273C6.99405 5.43359 6.99372 5.42444 6.99316 5.41531C6.94229 4.42719 6.09522 3.64609 5 3.64609ZM5 4.67391C5.69612 4.67391 5.97099 4.99722 6.00098 5.45594C5.9949 5.90119 5.73005 6.24609 5 6.24609C4.3073 6.24609 3.99414 5.87716 3.99414 5.44273C3.99414 5.22552 4.07035 5.06184 4.23047 4.92172C4.39059 4.7816 4.64761 4.67391 5 4.67391ZM3.5 7.8C3.3674 7.80001 3.24023 7.8548 3.14646 7.95232C3.0527 8.04984 3.00001 8.18209 3 8.32V18.2C3.00001 18.3379 3.0527 18.4702 3.14646 18.5677C3.24023 18.6652 3.3674 18.72 3.5 18.72H6.5C6.6326 18.72 6.75977 18.6652 6.85354 18.5677C6.9473 18.4702 6.99999 18.3379 7 18.2V15.1501V8.32C6.99999 8.18209 6.9473 8.04984 6.85354 7.95232C6.75977 7.8548 6.6326 7.80001 6.5 7.8H3.5ZM8 7.8C7.8674 7.80001 7.74023 7.8548 7.64646 7.95232C7.5527 8.04984 7.50001 8.18209 7.5 8.32V18.2C7.50001 18.3379 7.5527 18.4702 7.64646 18.5677C7.74023 18.6652 7.8674 18.72 8 18.72H11C11.1326 18.72 11.2598 18.6652 11.3535 18.5677C11.4473 18.4702 11.5 18.3379 11.5 18.2V13C11.5 12.5686 11.6132 12.1394 11.8125 11.8584C12.0118 11.5775 12.2632 11.4088 12.7412 11.4177C13.2341 11.4265 13.495 11.6021 13.6924 11.8777C13.8898 12.1534 14 12.5667 14 13V18.2C14 18.3379 14.0527 18.4702 14.1465 18.5677C14.2402 18.6652 14.3674 18.72 14.5 18.72H17.5C17.6326 18.72 17.7598 18.6652 17.8535 18.5677C17.9473 18.4702 18 18.3379 18 18.2V12.6161C18 11.0761 17.5614 9.85625 16.8096 9.03094C16.0577 8.20562 15.0121 7.8 13.9062 7.8C12.8552 7.8 12.0554 8.16654 11.5 8.54039V8.32C11.5 8.18209 11.4473 8.04984 11.3535 7.95232C11.2598 7.8548 11.1326 7.80001 11 7.8H8ZM4 8.84H6V15.1501V17.68H4V8.84ZM8.5 8.84H10.5V9.65149C10.5 9.76052 10.533 9.86679 10.5943 9.95527C10.6556 10.0437 10.742 10.11 10.8415 10.1445C10.9409 10.1791 11.0483 10.1803 11.1484 10.148C11.2485 10.1156 11.3363 10.0514 11.3994 9.9643C11.3994 9.9643 12.1846 8.84 13.9062 8.84C14.7829 8.84 15.5347 9.14294 16.084 9.74594C16.6333 10.3489 17 11.2779 17 12.6161V17.68H15V13C15 12.3933 14.8602 11.7661 14.4951 11.2562C14.13 10.7462 13.5159 10.3912 12.7588 10.3777C11.9978 10.3636 11.3738 10.726 11.0078 11.242C10.6419 11.7579 10.5 12.3914 10.5 13V17.68H8.5V8.84Z" fill="#121212"/>
</svg>
