<svg width="21" height="23" viewBox="0 0 21 23" fill="none" xmlns="http://www.w3.org/2000/svg">
<path d="M2.5 0.959961C1.12524 0.959961 0 2.13021 0 3.55996V20.2C0 21.6297 1.12524 22.8 2.5 22.8H18.5C19.8748 22.8 21 21.6297 21 20.2V3.55996C21 2.13021 19.8748 0.959961 18.5 0.959961H2.5ZM2.5 1.99996H18.5C19.3342 1.99996 20 2.69235 20 3.55996V20.2C20 21.0676 19.3342 21.76 18.5 21.76H2.5C1.66576 21.76 1 21.0676 1 20.2V3.55996C1 2.69235 1.66576 1.99996 2.5 1.99996ZM5 4.60606C4.45239 4.60606 3.95961 4.77628 3.59473 5.09559C3.22984 5.41489 3.00586 5.89191 3.00586 6.4027C3.00586 7.37363 3.81564 8.13056 4.8457 8.20543L4.84766 8.20645C4.89674 8.22384 4.94815 8.2331 5 8.23387C6.13651 8.23387 6.99414 7.40592 6.99414 6.4027C6.99405 6.39355 6.99372 6.3844 6.99316 6.37527C6.94229 5.38715 6.09522 4.60606 5 4.60606ZM5 5.63387C5.69612 5.63387 5.97098 5.95718 6.00098 6.4159C5.9949 6.86115 5.73005 7.20606 5 7.20606C4.3073 7.20606 3.99414 6.83712 3.99414 6.4027C3.99414 6.18548 4.07035 6.0218 4.23047 5.88168C4.39059 5.74156 4.64761 5.63387 5 5.63387ZM3.5 8.75996C3.3674 8.75998 3.24023 8.81477 3.14646 8.91228C3.0527 9.0098 3.00001 9.14205 3 9.27996V19.16C3.00001 19.2979 3.0527 19.4301 3.14646 19.5276C3.24023 19.6252 3.3674 19.6799 3.5 19.68H6.5C6.6326 19.6799 6.75977 19.6252 6.85354 19.5276C6.9473 19.4301 6.99999 19.2979 7 19.16V16.11V9.27996C6.99999 9.14205 6.9473 9.0098 6.85354 8.91228C6.75977 8.81477 6.6326 8.75998 6.5 8.75996H3.5ZM8 8.75996C7.8674 8.75998 7.74023 8.81477 7.64646 8.91228C7.5527 9.0098 7.50001 9.14205 7.5 9.27996V19.16C7.50001 19.2979 7.5527 19.4301 7.64646 19.5276C7.74023 19.6252 7.8674 19.6799 8 19.68H11C11.1326 19.6799 11.2598 19.6252 11.3535 19.5276C11.4473 19.4301 11.5 19.2979 11.5 19.16V13.96C11.5 13.5285 11.6132 13.0994 11.8125 12.8184C12.0118 12.5374 12.2632 12.3688 12.7412 12.3776C13.2341 12.3864 13.495 12.562 13.6924 12.8377C13.8898 13.1134 14 13.5266 14 13.96V19.16C14 19.2979 14.0527 19.4301 14.1465 19.5276C14.2402 19.6252 14.3674 19.6799 14.5 19.68H17.5C17.6326 19.6799 17.7598 19.6252 17.8535 19.5276C17.9473 19.4301 18 19.2979 18 19.16V13.5761C18 12.0361 17.5614 10.8162 16.8096 9.9909C16.0577 9.16558 15.0121 8.75996 13.9062 8.75996C12.8552 8.75996 12.0554 9.1265 11.5 9.50035V9.27996C11.5 9.14205 11.4473 9.0098 11.3535 8.91228C11.2598 8.81477 11.1326 8.75998 11 8.75996H8ZM4 9.79996H6V16.11V18.64H4V9.79996ZM8.5 9.79996H10.5V10.6114C10.5 10.7205 10.533 10.8268 10.5943 10.9152C10.6556 11.0037 10.742 11.0699 10.8415 11.1045C10.9409 11.1391 11.0483 11.1403 11.1484 11.1079C11.2485 11.0756 11.3363 11.0113 11.3994 10.9243C11.3994 10.9243 12.1846 9.79996 13.9062 9.79996C14.7829 9.79996 15.5347 10.1029 16.084 10.7059C16.6333 11.3089 17 12.2379 17 13.5761V18.64H15V13.96C15 13.3533 14.8602 12.7261 14.4951 12.2161C14.13 11.7062 13.5159 11.3512 12.7588 11.3376C11.9978 11.3236 11.3738 11.686 11.0078 12.2019C10.6419 12.7178 10.5 13.3514 10.5 13.96V18.64H8.5V9.79996Z" fill="#FEFEFE"/>
</svg>
